<svg xmlns="http://www.w3.org/2000/svg" version="1.1" xmlns:xlink="http://www.w3.org/1999/xlink" xmlns:svgjs="http://svgjs.com/svgjs" width="1440" height="560" preserveAspectRatio="none" viewBox="0 0 1440 560"><g mask="url(&quot;#SvgjsMask1990&quot;)" fill="none"><rect width="1440" height="560" x="0" y="0" fill="url(#SvgjsLinearGradient1991)"></rect><use xlink:href="#SvgjsG1995" transform="translate(0, 0)" fill="rgba(255, 255, 255, 1)"></use><use xlink:href="#SvgjsG1995" transform="translate(780, 0)" fill="rgba(255, 255, 255, 1)"></use></g><defs><mask id="SvgjsMask1990"><rect width="1440" height="560" fill="#ffffff"></rect></mask><linearGradient x1="15.28%" y1="-39.29%" x2="84.72%" y2="139.29%" gradientUnits="userSpaceOnUse" id="SvgjsLinearGradient1991"><stop stop-color="#0e2a47" offset="0"></stop><stop stop-color="rgba(159, 70, 232, 1)" offset="1"></stop></linearGradient><g id="SvgjsG1992"><path d="M2.396 6.756V16h3.56V10.315H10.085V16h3.559V6.756z"></path><path d="M0.064 8L8.02 0l7.956 8z"></path></g><g id="SvgjsG1993"><path d="M8.541 10.856h1.001v1H8.541zM8.243 14.859H10.041v-2.002h-2.001v2.002h0.201z"></path><path d="M14.225 9.282V3.277l-2.788 1.716v2.573h-1.067V4.125h-1.293V1.132h-3.432v4.899h-1.716v-1.682L2.536 3.492 1.142 4.349v3.003H0.07v7.507h3.216V9.103a1.501 1.501 0 0 1 3.004 0v1.184l-1.131 2.874h0.702v1.698h0.429v-2.127h-0.501l0.844-2.146 2.408-0.982 2.409 0.982 0.845 2.146h-0.501v2.127h0.846l2.872-0.001V9.282h-1.287z"></path></g><g id="SvgjsG1994"><path d="M8 14.66l5.904-5.908c1.836-1.836 1.8-4.512 0.132-6.174A4.268 4.268 0 0 0 8 2.58a4.264 4.264 0 0 0-6.03-0.02C0.3 4.24 0.26 6.92 2.1 8.744L8 14.66z"></path></g><g id="SvgjsG1995"><use xlink:href="#SvgjsG1992" transform="translate(0, 0) scale(2)" fill="rgba(255, 255, 255, 1)"></use><use xlink:href="#SvgjsG1993" transform="translate(0, 78) scale(2)" fill="rgba(255, 255, 255, 1)"></use><use xlink:href="#SvgjsG1994" transform="translate(0, 156) scale(2)" fill="rgba(255, 255, 255, 1)"></use><use xlink:href="#SvgjsG1992" transform="translate(0, 234) scale(2)" fill="rgba(255, 255, 255, 1)"></use><use xlink:href="#SvgjsG1993" transform="translate(0, 312) scale(2)" fill="rgba(255, 255, 255, 1)"></use><use xlink:href="#SvgjsG1994" transform="translate(0, 390) scale(2)" fill="rgba(255, 255, 255, 1)"></use><use xlink:href="#SvgjsG1992" transform="translate(0, 468) scale(2)" fill="rgba(255, 255, 255, 1)"></use><use xlink:href="#SvgjsG1993" transform="translate(0, 546) scale(2)" fill="rgba(255, 255, 255, 1)"></use><use xlink:href="#SvgjsG1993" transform="translate(78, 0) scale(2)" fill="rgba(255, 255, 255, 1)"></use><use xlink:href="#SvgjsG1994" transform="translate(78, 78) scale(2)" fill="rgba(255, 255, 255, 1)"></use><use xlink:href="#SvgjsG1992" transform="translate(78, 156) scale(2)" fill="rgba(255, 255, 255, 1)"></use><use xlink:href="#SvgjsG1993" transform="translate(78, 234) scale(2)" fill="rgba(255, 255, 255, 1)"></use><use xlink:href="#SvgjsG1994" transform="translate(78, 312) scale(2)" fill="rgba(255, 255, 255, 1)"></use><use xlink:href="#SvgjsG1992" transform="translate(78, 390) scale(2)" fill="rgba(255, 255, 255, 1)"></use><use xlink:href="#SvgjsG1993" transform="translate(78, 468) scale(2)" fill="rgba(255, 255, 255, 1)"></use><use xlink:href="#SvgjsG1994" transform="translate(78, 546) scale(2)" fill="rgba(255, 255, 255, 1)"></use><use xlink:href="#SvgjsG1994" transform="translate(156, 0) scale(2)" fill="rgba(255, 255, 255, 1)"></use><use xlink:href="#SvgjsG1992" transform="translate(156, 78) scale(2)" fill="rgba(255, 255, 255, 1)"></use><use xlink:href="#SvgjsG1993" transform="translate(156, 156) scale(2)" fill="rgba(255, 255, 255, 1)"></use><use xlink:href="#SvgjsG1994" transform="translate(156, 234) scale(2)" fill="rgba(255, 255, 255, 1)"></use><use xlink:href="#SvgjsG1992" transform="translate(156, 312) scale(2)" fill="rgba(255, 255, 255, 1)"></use><use xlink:href="#SvgjsG1993" transform="translate(156, 390) scale(2)" fill="rgba(255, 255, 255, 1)"></use><use xlink:href="#SvgjsG1994" transform="translate(156, 468) scale(2)" fill="rgba(255, 255, 255, 1)"></use><use xlink:href="#SvgjsG1992" transform="translate(156, 546) scale(2)" fill="rgba(255, 255, 255, 1)"></use><use xlink:href="#SvgjsG1992" transform="translate(234, 0) scale(2)" fill="rgba(255, 255, 255, 1)"></use><use xlink:href="#SvgjsG1993" transform="translate(234, 78) scale(2)" fill="rgba(255, 255, 255, 1)"></use><use xlink:href="#SvgjsG1994" transform="translate(234, 156) scale(2)" fill="rgba(255, 255, 255, 1)"></use><use xlink:href="#SvgjsG1992" transform="translate(234, 234) scale(2)" fill="rgba(255, 255, 255, 1)"></use><use xlink:href="#SvgjsG1993" transform="translate(234, 312) scale(2)" fill="rgba(255, 255, 255, 1)"></use><use xlink:href="#SvgjsG1994" transform="translate(234, 390) scale(2)" fill="rgba(255, 255, 255, 1)"></use><use xlink:href="#SvgjsG1992" transform="translate(234, 468) scale(2)" fill="rgba(255, 255, 255, 1)"></use><use xlink:href="#SvgjsG1993" transform="translate(234, 546) scale(2)" fill="rgba(255, 255, 255, 1)"></use><use xlink:href="#SvgjsG1993" transform="translate(312, 0) scale(2)" fill="rgba(255, 255, 255, 1)"></use><use xlink:href="#SvgjsG1994" transform="translate(312, 78) scale(2)" fill="rgba(255, 255, 255, 1)"></use><use xlink:href="#SvgjsG1992" transform="translate(312, 156) scale(2)" fill="rgba(255, 255, 255, 1)"></use><use xlink:href="#SvgjsG1993" transform="translate(312, 234) scale(2)" fill="rgba(255, 255, 255, 1)"></use><use xlink:href="#SvgjsG1994" transform="translate(312, 312) scale(2)" fill="rgba(255, 255, 255, 1)"></use><use xlink:href="#SvgjsG1992" transform="translate(312, 390) scale(2)" fill="rgba(255, 255, 255, 1)"></use><use xlink:href="#SvgjsG1993" transform="translate(312, 468) scale(2)" fill="rgba(255, 255, 255, 1)"></use><use xlink:href="#SvgjsG1994" transform="translate(312, 546) scale(2)" fill="rgba(255, 255, 255, 1)"></use><use xlink:href="#SvgjsG1994" transform="translate(390, 0) scale(2)" fill="rgba(255, 255, 255, 1)"></use><use xlink:href="#SvgjsG1992" transform="translate(390, 78) scale(2)" fill="rgba(255, 255, 255, 1)"></use><use xlink:href="#SvgjsG1993" transform="translate(390, 156) scale(2)" fill="rgba(255, 255, 255, 1)"></use><use xlink:href="#SvgjsG1994" transform="translate(390, 234) scale(2)" fill="rgba(255, 255, 255, 1)"></use><use xlink:href="#SvgjsG1992" transform="translate(390, 312) scale(2)" fill="rgba(255, 255, 255, 1)"></use><use xlink:href="#SvgjsG1993" transform="translate(390, 390) scale(2)" fill="rgba(255, 255, 255, 1)"></use><use xlink:href="#SvgjsG1994" transform="translate(390, 468) scale(2)" fill="rgba(255, 255, 255, 1)"></use><use xlink:href="#SvgjsG1992" transform="translate(390, 546) scale(2)" fill="rgba(255, 255, 255, 1)"></use><use xlink:href="#SvgjsG1992" transform="translate(468, 0) scale(2)" fill="rgba(255, 255, 255, 1)"></use><use xlink:href="#SvgjsG1993" transform="translate(468, 78) scale(2)" fill="rgba(255, 255, 255, 1)"></use><use xlink:href="#SvgjsG1994" transform="translate(468, 156) scale(2)" fill="rgba(255, 255, 255, 1)"></use><use xlink:href="#SvgjsG1992" transform="translate(468, 234) scale(2)" fill="rgba(255, 255, 255, 1)"></use><use xlink:href="#SvgjsG1993" transform="translate(468, 312) scale(2)" fill="rgba(255, 255, 255, 1)"></use><use xlink:href="#SvgjsG1994" transform="translate(468, 390) scale(2)" fill="rgba(255, 255, 255, 1)"></use><use xlink:href="#SvgjsG1992" transform="translate(468, 468) scale(2)" fill="rgba(255, 255, 255, 1)"></use><use xlink:href="#SvgjsG1993" transform="translate(468, 546) scale(2)" fill="rgba(255, 255, 255, 1)"></use><use xlink:href="#SvgjsG1993" transform="translate(546, 0) scale(2)" fill="rgba(255, 255, 255, 1)"></use><use xlink:href="#SvgjsG1994" transform="translate(546, 78) scale(2)" fill="rgba(255, 255, 255, 1)"></use><use xlink:href="#SvgjsG1992" transform="translate(546, 156) scale(2)" fill="rgba(255, 255, 255, 1)"></use><use xlink:href="#SvgjsG1993" transform="translate(546, 234) scale(2)" fill="rgba(255, 255, 255, 1)"></use><use xlink:href="#SvgjsG1994" transform="translate(546, 312) scale(2)" fill="rgba(255, 255, 255, 1)"></use><use xlink:href="#SvgjsG1992" transform="translate(546, 390) scale(2)" fill="rgba(255, 255, 255, 1)"></use><use xlink:href="#SvgjsG1993" transform="translate(546, 468) scale(2)" fill="rgba(255, 255, 255, 1)"></use><use xlink:href="#SvgjsG1994" transform="translate(546, 546) scale(2)" fill="rgba(255, 255, 255, 1)"></use><use xlink:href="#SvgjsG1994" transform="translate(624, 0) scale(2)" fill="rgba(255, 255, 255, 1)"></use><use xlink:href="#SvgjsG1992" transform="translate(624, 78) scale(2)" fill="rgba(255, 255, 255, 1)"></use><use xlink:href="#SvgjsG1993" transform="translate(624, 156) scale(2)" fill="rgba(255, 255, 255, 1)"></use><use xlink:href="#SvgjsG1994" transform="translate(624, 234) scale(2)" fill="rgba(255, 255, 255, 1)"></use><use xlink:href="#SvgjsG1992" transform="translate(624, 312) scale(2)" fill="rgba(255, 255, 255, 1)"></use><use xlink:href="#SvgjsG1993" transform="translate(624, 390) scale(2)" fill="rgba(255, 255, 255, 1)"></use><use xlink:href="#SvgjsG1994" transform="translate(624, 468) scale(2)" fill="rgba(255, 255, 255, 1)"></use><use xlink:href="#SvgjsG1992" transform="translate(624, 546) scale(2)" fill="rgba(255, 255, 255, 1)"></use><use xlink:href="#SvgjsG1992" transform="translate(702, 0) scale(2)" fill="rgba(255, 255, 255, 1)"></use><use xlink:href="#SvgjsG1993" transform="translate(702, 78) scale(2)" fill="rgba(255, 255, 255, 1)"></use><use xlink:href="#SvgjsG1994" transform="translate(702, 156) scale(2)" fill="rgba(255, 255, 255, 1)"></use><use xlink:href="#SvgjsG1992" transform="translate(702, 234) scale(2)" fill="rgba(255, 255, 255, 1)"></use><use xlink:href="#SvgjsG1993" transform="translate(702, 312) scale(2)" fill="rgba(255, 255, 255, 1)"></use><use xlink:href="#SvgjsG1994" transform="translate(702, 390) scale(2)" fill="rgba(255, 255, 255, 1)"></use><use xlink:href="#SvgjsG1992" transform="translate(702, 468) scale(2)" fill="rgba(255, 255, 255, 1)"></use><use xlink:href="#SvgjsG1993" transform="translate(702, 546) scale(2)" fill="rgba(255, 255, 255, 1)"></use></g></defs></svg>