<svg xmlns="http://www.w3.org/2000/svg" version="1.1" xmlns:xlink="http://www.w3.org/1999/xlink" xmlns:svgjs="http://svgjs.com/svgjs" width="1440" height="556" preserveAspectRatio="none" viewBox="0 0 1440 556"><g mask="url(&quot;#SvgjsMask2368&quot;)" fill="none"><rect width="1440" height="556" x="0" y="0" fill="url(#SvgjsLinearGradient2369)"></rect><use xlink:href="#SvgjsG2373" transform="translate(0, 0)" fill="rgba(255, 255, 255, 1)"></use><use xlink:href="#SvgjsG2373" transform="translate(0, 364)" fill="rgba(255, 255, 255, 1)"></use><use xlink:href="#SvgjsG2373" transform="translate(364, 0)" fill="rgba(255, 255, 255, 1)"></use><use xlink:href="#SvgjsG2373" transform="translate(364, 364)" fill="rgba(255, 255, 255, 1)"></use><use xlink:href="#SvgjsG2373" transform="translate(728, 0)" fill="rgba(255, 255, 255, 1)"></use><use xlink:href="#SvgjsG2373" transform="translate(728, 364)" fill="rgba(255, 255, 255, 1)"></use><use xlink:href="#SvgjsG2373" transform="translate(1092, 0)" fill="rgba(255, 255, 255, 1)"></use><use xlink:href="#SvgjsG2373" transform="translate(1092, 364)" fill="rgba(255, 255, 255, 1)"></use></g><defs><mask id="SvgjsMask2368"><rect width="1440" height="556" fill="#ffffff"></rect></mask><linearGradient x1="15.35%" y1="-39.75%" x2="84.65%" y2="139.75%" gradientUnits="userSpaceOnUse" id="SvgjsLinearGradient2369"><stop stop-color="#0e2a47" offset="0"></stop><stop stop-color="rgba(159, 70, 232, 1)" offset="1"></stop></linearGradient><g id="SvgjsG2370"><path d="M2.396 6.756V16h3.56V10.315H10.085V16h3.559V6.756z"></path><path d="M0.064 8L8.02 0l7.956 8z"></path></g><g id="SvgjsG2371"><path d="M8.541 10.856h1.001v1H8.541zM8.243 14.859H10.041v-2.002h-2.001v2.002h0.201z"></path><path d="M14.225 9.282V3.277l-2.788 1.716v2.573h-1.067V4.125h-1.293V1.132h-3.432v4.899h-1.716v-1.682L2.536 3.492 1.142 4.349v3.003H0.07v7.507h3.216V9.103a1.501 1.501 0 0 1 3.004 0v1.184l-1.131 2.874h0.702v1.698h0.429v-2.127h-0.501l0.844-2.146 2.408-0.982 2.409 0.982 0.845 2.146h-0.501v2.127h0.846l2.872-0.001V9.282h-1.287z"></path></g><g id="SvgjsG2372"><path d="M8 14.66l5.904-5.908c1.836-1.836 1.8-4.512 0.132-6.174A4.268 4.268 0 0 0 8 2.58a4.264 4.264 0 0 0-6.03-0.02C0.3 4.24 0.26 6.92 2.1 8.744L8 14.66z"></path></g><g id="SvgjsG2373"><use xlink:href="#SvgjsG2370" transform="translate(0, 0) scale(1.4)" fill="rgba(255, 255, 255, 1)"></use><use xlink:href="#SvgjsG2371" transform="translate(0, 36.4) scale(1.4)" fill="rgba(255, 255, 255, 1)"></use><use xlink:href="#SvgjsG2372" transform="translate(0, 72.8) scale(1.4)" fill="rgba(255, 255, 255, 1)"></use><use xlink:href="#SvgjsG2370" transform="translate(0, 109.19999999999999) scale(1.4)" fill="rgba(255, 255, 255, 1)"></use><use xlink:href="#SvgjsG2371" transform="translate(0, 145.6) scale(1.4)" fill="rgba(255, 255, 255, 1)"></use><use xlink:href="#SvgjsG2372" transform="translate(0, 182) scale(1.4)" fill="rgba(255, 255, 255, 1)"></use><use xlink:href="#SvgjsG2370" transform="translate(0, 218.39999999999998) scale(1.4)" fill="rgba(255, 255, 255, 1)"></use><use xlink:href="#SvgjsG2371" transform="translate(0, 254.79999999999998) scale(1.4)" fill="rgba(255, 255, 255, 1)"></use><use xlink:href="#SvgjsG2372" transform="translate(0, 291.2) scale(1.4)" fill="rgba(255, 255, 255, 1)"></use><use xlink:href="#SvgjsG2370" transform="translate(0, 327.59999999999997) scale(1.4)" fill="rgba(255, 255, 255, 1)"></use><use xlink:href="#SvgjsG2371" transform="translate(36.4, 0) scale(1.4)" fill="rgba(255, 255, 255, 1)"></use><use xlink:href="#SvgjsG2372" transform="translate(36.4, 36.4) scale(1.4)" fill="rgba(255, 255, 255, 1)"></use><use xlink:href="#SvgjsG2370" transform="translate(36.4, 72.8) scale(1.4)" fill="rgba(255, 255, 255, 1)"></use><use xlink:href="#SvgjsG2371" transform="translate(36.4, 109.19999999999999) scale(1.4)" fill="rgba(255, 255, 255, 1)"></use><use xlink:href="#SvgjsG2372" transform="translate(36.4, 145.6) scale(1.4)" fill="rgba(255, 255, 255, 1)"></use><use xlink:href="#SvgjsG2370" transform="translate(36.4, 182) scale(1.4)" fill="rgba(255, 255, 255, 1)"></use><use xlink:href="#SvgjsG2371" transform="translate(36.4, 218.39999999999998) scale(1.4)" fill="rgba(255, 255, 255, 1)"></use><use xlink:href="#SvgjsG2372" transform="translate(36.4, 254.79999999999998) scale(1.4)" fill="rgba(255, 255, 255, 1)"></use><use xlink:href="#SvgjsG2370" transform="translate(36.4, 291.2) scale(1.4)" fill="rgba(255, 255, 255, 1)"></use><use xlink:href="#SvgjsG2371" transform="translate(36.4, 327.59999999999997) scale(1.4)" fill="rgba(255, 255, 255, 1)"></use><use xlink:href="#SvgjsG2372" transform="translate(72.8, 0) scale(1.4)" fill="rgba(255, 255, 255, 1)"></use><use xlink:href="#SvgjsG2370" transform="translate(72.8, 36.4) scale(1.4)" fill="rgba(255, 255, 255, 1)"></use><use xlink:href="#SvgjsG2371" transform="translate(72.8, 72.8) scale(1.4)" fill="rgba(255, 255, 255, 1)"></use><use xlink:href="#SvgjsG2372" transform="translate(72.8, 109.19999999999999) scale(1.4)" fill="rgba(255, 255, 255, 1)"></use><use xlink:href="#SvgjsG2370" transform="translate(72.8, 145.6) scale(1.4)" fill="rgba(255, 255, 255, 1)"></use><use xlink:href="#SvgjsG2371" transform="translate(72.8, 182) scale(1.4)" fill="rgba(255, 255, 255, 1)"></use><use xlink:href="#SvgjsG2372" transform="translate(72.8, 218.39999999999998) scale(1.4)" fill="rgba(255, 255, 255, 1)"></use><use xlink:href="#SvgjsG2370" transform="translate(72.8, 254.79999999999998) scale(1.4)" fill="rgba(255, 255, 255, 1)"></use><use xlink:href="#SvgjsG2371" transform="translate(72.8, 291.2) scale(1.4)" fill="rgba(255, 255, 255, 1)"></use><use xlink:href="#SvgjsG2372" transform="translate(72.8, 327.59999999999997) scale(1.4)" fill="rgba(255, 255, 255, 1)"></use><use xlink:href="#SvgjsG2370" transform="translate(109.19999999999999, 0) scale(1.4)" fill="rgba(255, 255, 255, 1)"></use><use xlink:href="#SvgjsG2371" transform="translate(109.19999999999999, 36.4) scale(1.4)" fill="rgba(255, 255, 255, 1)"></use><use xlink:href="#SvgjsG2372" transform="translate(109.19999999999999, 72.8) scale(1.4)" fill="rgba(255, 255, 255, 1)"></use><use xlink:href="#SvgjsG2370" transform="translate(109.19999999999999, 109.19999999999999) scale(1.4)" fill="rgba(255, 255, 255, 1)"></use><use xlink:href="#SvgjsG2371" transform="translate(109.19999999999999, 145.6) scale(1.4)" fill="rgba(255, 255, 255, 1)"></use><use xlink:href="#SvgjsG2372" transform="translate(109.19999999999999, 182) scale(1.4)" fill="rgba(255, 255, 255, 1)"></use><use xlink:href="#SvgjsG2370" transform="translate(109.19999999999999, 218.39999999999998) scale(1.4)" fill="rgba(255, 255, 255, 1)"></use><use xlink:href="#SvgjsG2371" transform="translate(109.19999999999999, 254.79999999999998) scale(1.4)" fill="rgba(255, 255, 255, 1)"></use><use xlink:href="#SvgjsG2372" transform="translate(109.19999999999999, 291.2) scale(1.4)" fill="rgba(255, 255, 255, 1)"></use><use xlink:href="#SvgjsG2370" transform="translate(109.19999999999999, 327.59999999999997) scale(1.4)" fill="rgba(255, 255, 255, 1)"></use><use xlink:href="#SvgjsG2371" transform="translate(145.6, 0) scale(1.4)" fill="rgba(255, 255, 255, 1)"></use><use xlink:href="#SvgjsG2372" transform="translate(145.6, 36.4) scale(1.4)" fill="rgba(255, 255, 255, 1)"></use><use xlink:href="#SvgjsG2370" transform="translate(145.6, 72.8) scale(1.4)" fill="rgba(255, 255, 255, 1)"></use><use xlink:href="#SvgjsG2371" transform="translate(145.6, 109.19999999999999) scale(1.4)" fill="rgba(255, 255, 255, 1)"></use><use xlink:href="#SvgjsG2372" transform="translate(145.6, 145.6) scale(1.4)" fill="rgba(255, 255, 255, 1)"></use><use xlink:href="#SvgjsG2370" transform="translate(145.6, 182) scale(1.4)" fill="rgba(255, 255, 255, 1)"></use><use xlink:href="#SvgjsG2371" transform="translate(145.6, 218.39999999999998) scale(1.4)" fill="rgba(255, 255, 255, 1)"></use><use xlink:href="#SvgjsG2372" transform="translate(145.6, 254.79999999999998) scale(1.4)" fill="rgba(255, 255, 255, 1)"></use><use xlink:href="#SvgjsG2370" transform="translate(145.6, 291.2) scale(1.4)" fill="rgba(255, 255, 255, 1)"></use><use xlink:href="#SvgjsG2371" transform="translate(145.6, 327.59999999999997) scale(1.4)" fill="rgba(255, 255, 255, 1)"></use><use xlink:href="#SvgjsG2372" transform="translate(182, 0) scale(1.4)" fill="rgba(255, 255, 255, 1)"></use><use xlink:href="#SvgjsG2370" transform="translate(182, 36.4) scale(1.4)" fill="rgba(255, 255, 255, 1)"></use><use xlink:href="#SvgjsG2371" transform="translate(182, 72.8) scale(1.4)" fill="rgba(255, 255, 255, 1)"></use><use xlink:href="#SvgjsG2372" transform="translate(182, 109.19999999999999) scale(1.4)" fill="rgba(255, 255, 255, 1)"></use><use xlink:href="#SvgjsG2370" transform="translate(182, 145.6) scale(1.4)" fill="rgba(255, 255, 255, 1)"></use><use xlink:href="#SvgjsG2371" transform="translate(182, 182) scale(1.4)" fill="rgba(255, 255, 255, 1)"></use><use xlink:href="#SvgjsG2372" transform="translate(182, 218.39999999999998) scale(1.4)" fill="rgba(255, 255, 255, 1)"></use><use xlink:href="#SvgjsG2370" transform="translate(182, 254.79999999999998) scale(1.4)" fill="rgba(255, 255, 255, 1)"></use><use xlink:href="#SvgjsG2371" transform="translate(182, 291.2) scale(1.4)" fill="rgba(255, 255, 255, 1)"></use><use xlink:href="#SvgjsG2372" transform="translate(182, 327.59999999999997) scale(1.4)" fill="rgba(255, 255, 255, 1)"></use><use xlink:href="#SvgjsG2370" transform="translate(218.39999999999998, 0) scale(1.4)" fill="rgba(255, 255, 255, 1)"></use><use xlink:href="#SvgjsG2371" transform="translate(218.39999999999998, 36.4) scale(1.4)" fill="rgba(255, 255, 255, 1)"></use><use xlink:href="#SvgjsG2372" transform="translate(218.39999999999998, 72.8) scale(1.4)" fill="rgba(255, 255, 255, 1)"></use><use xlink:href="#SvgjsG2370" transform="translate(218.39999999999998, 109.19999999999999) scale(1.4)" fill="rgba(255, 255, 255, 1)"></use><use xlink:href="#SvgjsG2371" transform="translate(218.39999999999998, 145.6) scale(1.4)" fill="rgba(255, 255, 255, 1)"></use><use xlink:href="#SvgjsG2372" transform="translate(218.39999999999998, 182) scale(1.4)" fill="rgba(255, 255, 255, 1)"></use><use xlink:href="#SvgjsG2370" transform="translate(218.39999999999998, 218.39999999999998) scale(1.4)" fill="rgba(255, 255, 255, 1)"></use><use xlink:href="#SvgjsG2371" transform="translate(218.39999999999998, 254.79999999999998) scale(1.4)" fill="rgba(255, 255, 255, 1)"></use><use xlink:href="#SvgjsG2372" transform="translate(218.39999999999998, 291.2) scale(1.4)" fill="rgba(255, 255, 255, 1)"></use><use xlink:href="#SvgjsG2370" transform="translate(218.39999999999998, 327.59999999999997) scale(1.4)" fill="rgba(255, 255, 255, 1)"></use><use xlink:href="#SvgjsG2371" transform="translate(254.79999999999998, 0) scale(1.4)" fill="rgba(255, 255, 255, 1)"></use><use xlink:href="#SvgjsG2372" transform="translate(254.79999999999998, 36.4) scale(1.4)" fill="rgba(255, 255, 255, 1)"></use><use xlink:href="#SvgjsG2370" transform="translate(254.79999999999998, 72.8) scale(1.4)" fill="rgba(255, 255, 255, 1)"></use><use xlink:href="#SvgjsG2371" transform="translate(254.79999999999998, 109.19999999999999) scale(1.4)" fill="rgba(255, 255, 255, 1)"></use><use xlink:href="#SvgjsG2372" transform="translate(254.79999999999998, 145.6) scale(1.4)" fill="rgba(255, 255, 255, 1)"></use><use xlink:href="#SvgjsG2370" transform="translate(254.79999999999998, 182) scale(1.4)" fill="rgba(255, 255, 255, 1)"></use><use xlink:href="#SvgjsG2371" transform="translate(254.79999999999998, 218.39999999999998) scale(1.4)" fill="rgba(255, 255, 255, 1)"></use><use xlink:href="#SvgjsG2372" transform="translate(254.79999999999998, 254.79999999999998) scale(1.4)" fill="rgba(255, 255, 255, 1)"></use><use xlink:href="#SvgjsG2370" transform="translate(254.79999999999998, 291.2) scale(1.4)" fill="rgba(255, 255, 255, 1)"></use><use xlink:href="#SvgjsG2371" transform="translate(254.79999999999998, 327.59999999999997) scale(1.4)" fill="rgba(255, 255, 255, 1)"></use><use xlink:href="#SvgjsG2372" transform="translate(291.2, 0) scale(1.4)" fill="rgba(255, 255, 255, 1)"></use><use xlink:href="#SvgjsG2370" transform="translate(291.2, 36.4) scale(1.4)" fill="rgba(255, 255, 255, 1)"></use><use xlink:href="#SvgjsG2371" transform="translate(291.2, 72.8) scale(1.4)" fill="rgba(255, 255, 255, 1)"></use><use xlink:href="#SvgjsG2372" transform="translate(291.2, 109.19999999999999) scale(1.4)" fill="rgba(255, 255, 255, 1)"></use><use xlink:href="#SvgjsG2370" transform="translate(291.2, 145.6) scale(1.4)" fill="rgba(255, 255, 255, 1)"></use><use xlink:href="#SvgjsG2371" transform="translate(291.2, 182) scale(1.4)" fill="rgba(255, 255, 255, 1)"></use><use xlink:href="#SvgjsG2372" transform="translate(291.2, 218.39999999999998) scale(1.4)" fill="rgba(255, 255, 255, 1)"></use><use xlink:href="#SvgjsG2370" transform="translate(291.2, 254.79999999999998) scale(1.4)" fill="rgba(255, 255, 255, 1)"></use><use xlink:href="#SvgjsG2371" transform="translate(291.2, 291.2) scale(1.4)" fill="rgba(255, 255, 255, 1)"></use><use xlink:href="#SvgjsG2372" transform="translate(291.2, 327.59999999999997) scale(1.4)" fill="rgba(255, 255, 255, 1)"></use><use xlink:href="#SvgjsG2370" transform="translate(327.59999999999997, 0) scale(1.4)" fill="rgba(255, 255, 255, 1)"></use><use xlink:href="#SvgjsG2371" transform="translate(327.59999999999997, 36.4) scale(1.4)" fill="rgba(255, 255, 255, 1)"></use><use xlink:href="#SvgjsG2372" transform="translate(327.59999999999997, 72.8) scale(1.4)" fill="rgba(255, 255, 255, 1)"></use><use xlink:href="#SvgjsG2370" transform="translate(327.59999999999997, 109.19999999999999) scale(1.4)" fill="rgba(255, 255, 255, 1)"></use><use xlink:href="#SvgjsG2371" transform="translate(327.59999999999997, 145.6) scale(1.4)" fill="rgba(255, 255, 255, 1)"></use><use xlink:href="#SvgjsG2372" transform="translate(327.59999999999997, 182) scale(1.4)" fill="rgba(255, 255, 255, 1)"></use><use xlink:href="#SvgjsG2370" transform="translate(327.59999999999997, 218.39999999999998) scale(1.4)" fill="rgba(255, 255, 255, 1)"></use><use xlink:href="#SvgjsG2371" transform="translate(327.59999999999997, 254.79999999999998) scale(1.4)" fill="rgba(255, 255, 255, 1)"></use><use xlink:href="#SvgjsG2372" transform="translate(327.59999999999997, 291.2) scale(1.4)" fill="rgba(255, 255, 255, 1)"></use><use xlink:href="#SvgjsG2370" transform="translate(327.59999999999997, 327.59999999999997) scale(1.4)" fill="rgba(255, 255, 255, 1)"></use></g></defs></svg>