<svg xmlns="http://www.w3.org/2000/svg" version="1.1" xmlns:xlink="http://www.w3.org/1999/xlink" xmlns:svgjs="http://svgjs.com/svgjs" width="1440" height="556" preserveAspectRatio="none" viewBox="0 0 1440 556"><g mask="url(&quot;#SvgjsMask3010&quot;)" fill="none"><use xlink:href="#SvgjsG3014" transform="translate(0, 0)" fill="rgba(116, 20, 159, 1)"></use><use xlink:href="#SvgjsG3014" transform="translate(700, 0)" fill="rgba(116, 20, 159, 1)"></use><use xlink:href="#SvgjsG3014" transform="translate(1400, 0)" fill="rgba(116, 20, 159, 1)"></use></g><defs><mask id="SvgjsMask3010"><rect width="1440" height="556" fill="#ffffff"></rect></mask><g id="SvgjsG3011"><path d="M2.396 6.756V16h3.56V10.315H10.085V16h3.559V6.756z"></path><path d="M0.064 8L8.02 0l7.956 8z"></path></g><g id="SvgjsG3012"><path d="M8.541 10.856h1.001v1H8.541zM8.243 14.859H10.041v-2.002h-2.001v2.002h0.201z"></path><path d="M14.225 9.282V3.277l-2.788 1.716v2.573h-1.067V4.125h-1.293V1.132h-3.432v4.899h-1.716v-1.682L2.536 3.492 1.142 4.349v3.003H0.07v7.507h3.216V9.103a1.501 1.501 0 0 1 3.004 0v1.184l-1.131 2.874h0.702v1.698h0.429v-2.127h-0.501l0.844-2.146 2.408-0.982 2.409 0.982 0.845 2.146h-0.501v2.127h0.846l2.872-0.001V9.282h-1.287z"></path></g><g id="SvgjsG3013"><path d="M8 14.66l5.904-5.908c1.836-1.836 1.8-4.512 0.132-6.174A4.268 4.268 0 0 0 8 2.58a4.264 4.264 0 0 0-6.03-0.02C0.3 4.24 0.26 6.92 2.1 8.744L8 14.66z"></path></g><g id="SvgjsG3014"><use xlink:href="#SvgjsG3011" transform="translate(0, 0) scale(1.4)" fill="rgba(116, 20, 159, 1)"></use><use xlink:href="#SvgjsG3012" transform="translate(0, 70) scale(1.4)" fill="rgba(116, 20, 159, 1)"></use><use xlink:href="#SvgjsG3013" transform="translate(0, 140) scale(1.4)" fill="rgba(116, 20, 159, 1)"></use><use xlink:href="#SvgjsG3011" transform="translate(0, 210) scale(1.4)" fill="rgba(116, 20, 159, 1)"></use><use xlink:href="#SvgjsG3012" transform="translate(0, 280) scale(1.4)" fill="rgba(116, 20, 159, 1)"></use><use xlink:href="#SvgjsG3013" transform="translate(0, 350) scale(1.4)" fill="rgba(116, 20, 159, 1)"></use><use xlink:href="#SvgjsG3011" transform="translate(0, 420) scale(1.4)" fill="rgba(116, 20, 159, 1)"></use><use xlink:href="#SvgjsG3012" transform="translate(0, 490) scale(1.4)" fill="rgba(116, 20, 159, 1)"></use><use xlink:href="#SvgjsG3012" transform="translate(70, 0) scale(1.4)" fill="rgba(116, 20, 159, 1)"></use><use xlink:href="#SvgjsG3013" transform="translate(70, 70) scale(1.4)" fill="rgba(116, 20, 159, 1)"></use><use xlink:href="#SvgjsG3011" transform="translate(70, 140) scale(1.4)" fill="rgba(116, 20, 159, 1)"></use><use xlink:href="#SvgjsG3012" transform="translate(70, 210) scale(1.4)" fill="rgba(116, 20, 159, 1)"></use><use xlink:href="#SvgjsG3013" transform="translate(70, 280) scale(1.4)" fill="rgba(116, 20, 159, 1)"></use><use xlink:href="#SvgjsG3011" transform="translate(70, 350) scale(1.4)" fill="rgba(116, 20, 159, 1)"></use><use xlink:href="#SvgjsG3012" transform="translate(70, 420) scale(1.4)" fill="rgba(116, 20, 159, 1)"></use><use xlink:href="#SvgjsG3013" transform="translate(70, 490) scale(1.4)" fill="rgba(116, 20, 159, 1)"></use><use xlink:href="#SvgjsG3013" transform="translate(140, 0) scale(1.4)" fill="rgba(116, 20, 159, 1)"></use><use xlink:href="#SvgjsG3011" transform="translate(140, 70) scale(1.4)" fill="rgba(116, 20, 159, 1)"></use><use xlink:href="#SvgjsG3012" transform="translate(140, 140) scale(1.4)" fill="rgba(116, 20, 159, 1)"></use><use xlink:href="#SvgjsG3013" transform="translate(140, 210) scale(1.4)" fill="rgba(116, 20, 159, 1)"></use><use xlink:href="#SvgjsG3011" transform="translate(140, 280) scale(1.4)" fill="rgba(116, 20, 159, 1)"></use><use xlink:href="#SvgjsG3012" transform="translate(140, 350) scale(1.4)" fill="rgba(116, 20, 159, 1)"></use><use xlink:href="#SvgjsG3013" transform="translate(140, 420) scale(1.4)" fill="rgba(116, 20, 159, 1)"></use><use xlink:href="#SvgjsG3011" transform="translate(140, 490) scale(1.4)" fill="rgba(116, 20, 159, 1)"></use><use xlink:href="#SvgjsG3011" transform="translate(210, 0) scale(1.4)" fill="rgba(116, 20, 159, 1)"></use><use xlink:href="#SvgjsG3012" transform="translate(210, 70) scale(1.4)" fill="rgba(116, 20, 159, 1)"></use><use xlink:href="#SvgjsG3013" transform="translate(210, 140) scale(1.4)" fill="rgba(116, 20, 159, 1)"></use><use xlink:href="#SvgjsG3011" transform="translate(210, 210) scale(1.4)" fill="rgba(116, 20, 159, 1)"></use><use xlink:href="#SvgjsG3012" transform="translate(210, 280) scale(1.4)" fill="rgba(116, 20, 159, 1)"></use><use xlink:href="#SvgjsG3013" transform="translate(210, 350) scale(1.4)" fill="rgba(116, 20, 159, 1)"></use><use xlink:href="#SvgjsG3011" transform="translate(210, 420) scale(1.4)" fill="rgba(116, 20, 159, 1)"></use><use xlink:href="#SvgjsG3012" transform="translate(210, 490) scale(1.4)" fill="rgba(116, 20, 159, 1)"></use><use xlink:href="#SvgjsG3012" transform="translate(280, 0) scale(1.4)" fill="rgba(116, 20, 159, 1)"></use><use xlink:href="#SvgjsG3013" transform="translate(280, 70) scale(1.4)" fill="rgba(116, 20, 159, 1)"></use><use xlink:href="#SvgjsG3011" transform="translate(280, 140) scale(1.4)" fill="rgba(116, 20, 159, 1)"></use><use xlink:href="#SvgjsG3012" transform="translate(280, 210) scale(1.4)" fill="rgba(116, 20, 159, 1)"></use><use xlink:href="#SvgjsG3013" transform="translate(280, 280) scale(1.4)" fill="rgba(116, 20, 159, 1)"></use><use xlink:href="#SvgjsG3011" transform="translate(280, 350) scale(1.4)" fill="rgba(116, 20, 159, 1)"></use><use xlink:href="#SvgjsG3012" transform="translate(280, 420) scale(1.4)" fill="rgba(116, 20, 159, 1)"></use><use xlink:href="#SvgjsG3013" transform="translate(280, 490) scale(1.4)" fill="rgba(116, 20, 159, 1)"></use><use xlink:href="#SvgjsG3013" transform="translate(350, 0) scale(1.4)" fill="rgba(116, 20, 159, 1)"></use><use xlink:href="#SvgjsG3011" transform="translate(350, 70) scale(1.4)" fill="rgba(116, 20, 159, 1)"></use><use xlink:href="#SvgjsG3012" transform="translate(350, 140) scale(1.4)" fill="rgba(116, 20, 159, 1)"></use><use xlink:href="#SvgjsG3013" transform="translate(350, 210) scale(1.4)" fill="rgba(116, 20, 159, 1)"></use><use xlink:href="#SvgjsG3011" transform="translate(350, 280) scale(1.4)" fill="rgba(116, 20, 159, 1)"></use><use xlink:href="#SvgjsG3012" transform="translate(350, 350) scale(1.4)" fill="rgba(116, 20, 159, 1)"></use><use xlink:href="#SvgjsG3013" transform="translate(350, 420) scale(1.4)" fill="rgba(116, 20, 159, 1)"></use><use xlink:href="#SvgjsG3011" transform="translate(350, 490) scale(1.4)" fill="rgba(116, 20, 159, 1)"></use><use xlink:href="#SvgjsG3011" transform="translate(420, 0) scale(1.4)" fill="rgba(116, 20, 159, 1)"></use><use xlink:href="#SvgjsG3012" transform="translate(420, 70) scale(1.4)" fill="rgba(116, 20, 159, 1)"></use><use xlink:href="#SvgjsG3013" transform="translate(420, 140) scale(1.4)" fill="rgba(116, 20, 159, 1)"></use><use xlink:href="#SvgjsG3011" transform="translate(420, 210) scale(1.4)" fill="rgba(116, 20, 159, 1)"></use><use xlink:href="#SvgjsG3012" transform="translate(420, 280) scale(1.4)" fill="rgba(116, 20, 159, 1)"></use><use xlink:href="#SvgjsG3013" transform="translate(420, 350) scale(1.4)" fill="rgba(116, 20, 159, 1)"></use><use xlink:href="#SvgjsG3011" transform="translate(420, 420) scale(1.4)" fill="rgba(116, 20, 159, 1)"></use><use xlink:href="#SvgjsG3012" transform="translate(420, 490) scale(1.4)" fill="rgba(116, 20, 159, 1)"></use><use xlink:href="#SvgjsG3012" transform="translate(490, 0) scale(1.4)" fill="rgba(116, 20, 159, 1)"></use><use xlink:href="#SvgjsG3013" transform="translate(490, 70) scale(1.4)" fill="rgba(116, 20, 159, 1)"></use><use xlink:href="#SvgjsG3011" transform="translate(490, 140) scale(1.4)" fill="rgba(116, 20, 159, 1)"></use><use xlink:href="#SvgjsG3012" transform="translate(490, 210) scale(1.4)" fill="rgba(116, 20, 159, 1)"></use><use xlink:href="#SvgjsG3013" transform="translate(490, 280) scale(1.4)" fill="rgba(116, 20, 159, 1)"></use><use xlink:href="#SvgjsG3011" transform="translate(490, 350) scale(1.4)" fill="rgba(116, 20, 159, 1)"></use><use xlink:href="#SvgjsG3012" transform="translate(490, 420) scale(1.4)" fill="rgba(116, 20, 159, 1)"></use><use xlink:href="#SvgjsG3013" transform="translate(490, 490) scale(1.4)" fill="rgba(116, 20, 159, 1)"></use><use xlink:href="#SvgjsG3013" transform="translate(560, 0) scale(1.4)" fill="rgba(116, 20, 159, 1)"></use><use xlink:href="#SvgjsG3011" transform="translate(560, 70) scale(1.4)" fill="rgba(116, 20, 159, 1)"></use><use xlink:href="#SvgjsG3012" transform="translate(560, 140) scale(1.4)" fill="rgba(116, 20, 159, 1)"></use><use xlink:href="#SvgjsG3013" transform="translate(560, 210) scale(1.4)" fill="rgba(116, 20, 159, 1)"></use><use xlink:href="#SvgjsG3011" transform="translate(560, 280) scale(1.4)" fill="rgba(116, 20, 159, 1)"></use><use xlink:href="#SvgjsG3012" transform="translate(560, 350) scale(1.4)" fill="rgba(116, 20, 159, 1)"></use><use xlink:href="#SvgjsG3013" transform="translate(560, 420) scale(1.4)" fill="rgba(116, 20, 159, 1)"></use><use xlink:href="#SvgjsG3011" transform="translate(560, 490) scale(1.4)" fill="rgba(116, 20, 159, 1)"></use><use xlink:href="#SvgjsG3011" transform="translate(630, 0) scale(1.4)" fill="rgba(116, 20, 159, 1)"></use><use xlink:href="#SvgjsG3012" transform="translate(630, 70) scale(1.4)" fill="rgba(116, 20, 159, 1)"></use><use xlink:href="#SvgjsG3013" transform="translate(630, 140) scale(1.4)" fill="rgba(116, 20, 159, 1)"></use><use xlink:href="#SvgjsG3011" transform="translate(630, 210) scale(1.4)" fill="rgba(116, 20, 159, 1)"></use><use xlink:href="#SvgjsG3012" transform="translate(630, 280) scale(1.4)" fill="rgba(116, 20, 159, 1)"></use><use xlink:href="#SvgjsG3013" transform="translate(630, 350) scale(1.4)" fill="rgba(116, 20, 159, 1)"></use><use xlink:href="#SvgjsG3011" transform="translate(630, 420) scale(1.4)" fill="rgba(116, 20, 159, 1)"></use><use xlink:href="#SvgjsG3012" transform="translate(630, 490) scale(1.4)" fill="rgba(116, 20, 159, 1)"></use></g></defs></svg>