<svg xmlns="http://www.w3.org/2000/svg" version="1.1" xmlns:xlink="http://www.w3.org/1999/xlink" xmlns:svgjs="http://svgjs.com/svgjs" width="1440" height="556" preserveAspectRatio="none" viewBox="0 0 1440 556"><g mask="url(&quot;#SvgjsMask3235&quot;)" fill="none"><use xlink:href="#SvgjsG3239" transform="translate(0, 0)" fill="rgba(116, 20, 159, 1)"></use><use xlink:href="#SvgjsG3239" transform="translate(0, 448)" fill="rgba(116, 20, 159, 1)"></use><use xlink:href="#SvgjsG3239" transform="translate(448, 0)" fill="rgba(116, 20, 159, 1)"></use><use xlink:href="#SvgjsG3239" transform="translate(448, 448)" fill="rgba(116, 20, 159, 1)"></use><use xlink:href="#SvgjsG3239" transform="translate(896, 0)" fill="rgba(116, 20, 159, 1)"></use><use xlink:href="#SvgjsG3239" transform="translate(896, 448)" fill="rgba(116, 20, 159, 1)"></use><use xlink:href="#SvgjsG3239" transform="translate(1344, 0)" fill="rgba(116, 20, 159, 1)"></use><use xlink:href="#SvgjsG3239" transform="translate(1344, 448)" fill="rgba(116, 20, 159, 1)"></use></g><defs><mask id="SvgjsMask3235"><rect width="1440" height="556" fill="#ffffff"></rect></mask><g id="SvgjsG3236"><path d="M2.396 6.756V16h3.56V10.315H10.085V16h3.559V6.756z"></path><path d="M0.064 8L8.02 0l7.956 8z"></path></g><g id="SvgjsG3237"><path d="M8.541 10.856h1.001v1H8.541zM8.243 14.859H10.041v-2.002h-2.001v2.002h0.201z"></path><path d="M14.225 9.282V3.277l-2.788 1.716v2.573h-1.067V4.125h-1.293V1.132h-3.432v4.899h-1.716v-1.682L2.536 3.492 1.142 4.349v3.003H0.07v7.507h3.216V9.103a1.501 1.501 0 0 1 3.004 0v1.184l-1.131 2.874h0.702v1.698h0.429v-2.127h-0.501l0.844-2.146 2.408-0.982 2.409 0.982 0.845 2.146h-0.501v2.127h0.846l2.872-0.001V9.282h-1.287z"></path></g><g id="SvgjsG3238"><path d="M8 14.66l5.904-5.908c1.836-1.836 1.8-4.512 0.132-6.174A4.268 4.268 0 0 0 8 2.58a4.264 4.264 0 0 0-6.03-0.02C0.3 4.24 0.26 6.92 2.1 8.744L8 14.66z"></path></g><g id="SvgjsG3239"><use xlink:href="#SvgjsG3236" transform="translate(0, 0) scale(1.4)" fill="rgba(116, 20, 159, 1)"></use><use xlink:href="#SvgjsG3237" transform="translate(0, 44.8) scale(1.4)" fill="rgba(116, 20, 159, 1)"></use><use xlink:href="#SvgjsG3238" transform="translate(0, 89.6) scale(1.4)" fill="rgba(116, 20, 159, 1)"></use><use xlink:href="#SvgjsG3236" transform="translate(0, 134.39999999999998) scale(1.4)" fill="rgba(116, 20, 159, 1)"></use><use xlink:href="#SvgjsG3237" transform="translate(0, 179.2) scale(1.4)" fill="rgba(116, 20, 159, 1)"></use><use xlink:href="#SvgjsG3238" transform="translate(0, 224) scale(1.4)" fill="rgba(116, 20, 159, 1)"></use><use xlink:href="#SvgjsG3236" transform="translate(0, 268.79999999999995) scale(1.4)" fill="rgba(116, 20, 159, 1)"></use><use xlink:href="#SvgjsG3237" transform="translate(0, 313.59999999999997) scale(1.4)" fill="rgba(116, 20, 159, 1)"></use><use xlink:href="#SvgjsG3238" transform="translate(0, 358.4) scale(1.4)" fill="rgba(116, 20, 159, 1)"></use><use xlink:href="#SvgjsG3236" transform="translate(0, 403.2) scale(1.4)" fill="rgba(116, 20, 159, 1)"></use><use xlink:href="#SvgjsG3237" transform="translate(44.8, 0) scale(1.4)" fill="rgba(116, 20, 159, 1)"></use><use xlink:href="#SvgjsG3238" transform="translate(44.8, 44.8) scale(1.4)" fill="rgba(116, 20, 159, 1)"></use><use xlink:href="#SvgjsG3236" transform="translate(44.8, 89.6) scale(1.4)" fill="rgba(116, 20, 159, 1)"></use><use xlink:href="#SvgjsG3237" transform="translate(44.8, 134.39999999999998) scale(1.4)" fill="rgba(116, 20, 159, 1)"></use><use xlink:href="#SvgjsG3238" transform="translate(44.8, 179.2) scale(1.4)" fill="rgba(116, 20, 159, 1)"></use><use xlink:href="#SvgjsG3236" transform="translate(44.8, 224) scale(1.4)" fill="rgba(116, 20, 159, 1)"></use><use xlink:href="#SvgjsG3237" transform="translate(44.8, 268.79999999999995) scale(1.4)" fill="rgba(116, 20, 159, 1)"></use><use xlink:href="#SvgjsG3238" transform="translate(44.8, 313.59999999999997) scale(1.4)" fill="rgba(116, 20, 159, 1)"></use><use xlink:href="#SvgjsG3236" transform="translate(44.8, 358.4) scale(1.4)" fill="rgba(116, 20, 159, 1)"></use><use xlink:href="#SvgjsG3237" transform="translate(44.8, 403.2) scale(1.4)" fill="rgba(116, 20, 159, 1)"></use><use xlink:href="#SvgjsG3238" transform="translate(89.6, 0) scale(1.4)" fill="rgba(116, 20, 159, 1)"></use><use xlink:href="#SvgjsG3236" transform="translate(89.6, 44.8) scale(1.4)" fill="rgba(116, 20, 159, 1)"></use><use xlink:href="#SvgjsG3237" transform="translate(89.6, 89.6) scale(1.4)" fill="rgba(116, 20, 159, 1)"></use><use xlink:href="#SvgjsG3238" transform="translate(89.6, 134.39999999999998) scale(1.4)" fill="rgba(116, 20, 159, 1)"></use><use xlink:href="#SvgjsG3236" transform="translate(89.6, 179.2) scale(1.4)" fill="rgba(116, 20, 159, 1)"></use><use xlink:href="#SvgjsG3237" transform="translate(89.6, 224) scale(1.4)" fill="rgba(116, 20, 159, 1)"></use><use xlink:href="#SvgjsG3238" transform="translate(89.6, 268.79999999999995) scale(1.4)" fill="rgba(116, 20, 159, 1)"></use><use xlink:href="#SvgjsG3236" transform="translate(89.6, 313.59999999999997) scale(1.4)" fill="rgba(116, 20, 159, 1)"></use><use xlink:href="#SvgjsG3237" transform="translate(89.6, 358.4) scale(1.4)" fill="rgba(116, 20, 159, 1)"></use><use xlink:href="#SvgjsG3238" transform="translate(89.6, 403.2) scale(1.4)" fill="rgba(116, 20, 159, 1)"></use><use xlink:href="#SvgjsG3236" transform="translate(134.39999999999998, 0) scale(1.4)" fill="rgba(116, 20, 159, 1)"></use><use xlink:href="#SvgjsG3237" transform="translate(134.39999999999998, 44.8) scale(1.4)" fill="rgba(116, 20, 159, 1)"></use><use xlink:href="#SvgjsG3238" transform="translate(134.39999999999998, 89.6) scale(1.4)" fill="rgba(116, 20, 159, 1)"></use><use xlink:href="#SvgjsG3236" transform="translate(134.39999999999998, 134.39999999999998) scale(1.4)" fill="rgba(116, 20, 159, 1)"></use><use xlink:href="#SvgjsG3237" transform="translate(134.39999999999998, 179.2) scale(1.4)" fill="rgba(116, 20, 159, 1)"></use><use xlink:href="#SvgjsG3238" transform="translate(134.39999999999998, 224) scale(1.4)" fill="rgba(116, 20, 159, 1)"></use><use xlink:href="#SvgjsG3236" transform="translate(134.39999999999998, 268.79999999999995) scale(1.4)" fill="rgba(116, 20, 159, 1)"></use><use xlink:href="#SvgjsG3237" transform="translate(134.39999999999998, 313.59999999999997) scale(1.4)" fill="rgba(116, 20, 159, 1)"></use><use xlink:href="#SvgjsG3238" transform="translate(134.39999999999998, 358.4) scale(1.4)" fill="rgba(116, 20, 159, 1)"></use><use xlink:href="#SvgjsG3236" transform="translate(134.39999999999998, 403.2) scale(1.4)" fill="rgba(116, 20, 159, 1)"></use><use xlink:href="#SvgjsG3237" transform="translate(179.2, 0) scale(1.4)" fill="rgba(116, 20, 159, 1)"></use><use xlink:href="#SvgjsG3238" transform="translate(179.2, 44.8) scale(1.4)" fill="rgba(116, 20, 159, 1)"></use><use xlink:href="#SvgjsG3236" transform="translate(179.2, 89.6) scale(1.4)" fill="rgba(116, 20, 159, 1)"></use><use xlink:href="#SvgjsG3237" transform="translate(179.2, 134.39999999999998) scale(1.4)" fill="rgba(116, 20, 159, 1)"></use><use xlink:href="#SvgjsG3238" transform="translate(179.2, 179.2) scale(1.4)" fill="rgba(116, 20, 159, 1)"></use><use xlink:href="#SvgjsG3236" transform="translate(179.2, 224) scale(1.4)" fill="rgba(116, 20, 159, 1)"></use><use xlink:href="#SvgjsG3237" transform="translate(179.2, 268.79999999999995) scale(1.4)" fill="rgba(116, 20, 159, 1)"></use><use xlink:href="#SvgjsG3238" transform="translate(179.2, 313.59999999999997) scale(1.4)" fill="rgba(116, 20, 159, 1)"></use><use xlink:href="#SvgjsG3236" transform="translate(179.2, 358.4) scale(1.4)" fill="rgba(116, 20, 159, 1)"></use><use xlink:href="#SvgjsG3237" transform="translate(179.2, 403.2) scale(1.4)" fill="rgba(116, 20, 159, 1)"></use><use xlink:href="#SvgjsG3238" transform="translate(224, 0) scale(1.4)" fill="rgba(116, 20, 159, 1)"></use><use xlink:href="#SvgjsG3236" transform="translate(224, 44.8) scale(1.4)" fill="rgba(116, 20, 159, 1)"></use><use xlink:href="#SvgjsG3237" transform="translate(224, 89.6) scale(1.4)" fill="rgba(116, 20, 159, 1)"></use><use xlink:href="#SvgjsG3238" transform="translate(224, 134.39999999999998) scale(1.4)" fill="rgba(116, 20, 159, 1)"></use><use xlink:href="#SvgjsG3236" transform="translate(224, 179.2) scale(1.4)" fill="rgba(116, 20, 159, 1)"></use><use xlink:href="#SvgjsG3237" transform="translate(224, 224) scale(1.4)" fill="rgba(116, 20, 159, 1)"></use><use xlink:href="#SvgjsG3238" transform="translate(224, 268.79999999999995) scale(1.4)" fill="rgba(116, 20, 159, 1)"></use><use xlink:href="#SvgjsG3236" transform="translate(224, 313.59999999999997) scale(1.4)" fill="rgba(116, 20, 159, 1)"></use><use xlink:href="#SvgjsG3237" transform="translate(224, 358.4) scale(1.4)" fill="rgba(116, 20, 159, 1)"></use><use xlink:href="#SvgjsG3238" transform="translate(224, 403.2) scale(1.4)" fill="rgba(116, 20, 159, 1)"></use><use xlink:href="#SvgjsG3236" transform="translate(268.79999999999995, 0) scale(1.4)" fill="rgba(116, 20, 159, 1)"></use><use xlink:href="#SvgjsG3237" transform="translate(268.79999999999995, 44.8) scale(1.4)" fill="rgba(116, 20, 159, 1)"></use><use xlink:href="#SvgjsG3238" transform="translate(268.79999999999995, 89.6) scale(1.4)" fill="rgba(116, 20, 159, 1)"></use><use xlink:href="#SvgjsG3236" transform="translate(268.79999999999995, 134.39999999999998) scale(1.4)" fill="rgba(116, 20, 159, 1)"></use><use xlink:href="#SvgjsG3237" transform="translate(268.79999999999995, 179.2) scale(1.4)" fill="rgba(116, 20, 159, 1)"></use><use xlink:href="#SvgjsG3238" transform="translate(268.79999999999995, 224) scale(1.4)" fill="rgba(116, 20, 159, 1)"></use><use xlink:href="#SvgjsG3236" transform="translate(268.79999999999995, 268.79999999999995) scale(1.4)" fill="rgba(116, 20, 159, 1)"></use><use xlink:href="#SvgjsG3237" transform="translate(268.79999999999995, 313.59999999999997) scale(1.4)" fill="rgba(116, 20, 159, 1)"></use><use xlink:href="#SvgjsG3238" transform="translate(268.79999999999995, 358.4) scale(1.4)" fill="rgba(116, 20, 159, 1)"></use><use xlink:href="#SvgjsG3236" transform="translate(268.79999999999995, 403.2) scale(1.4)" fill="rgba(116, 20, 159, 1)"></use><use xlink:href="#SvgjsG3237" transform="translate(313.59999999999997, 0) scale(1.4)" fill="rgba(116, 20, 159, 1)"></use><use xlink:href="#SvgjsG3238" transform="translate(313.59999999999997, 44.8) scale(1.4)" fill="rgba(116, 20, 159, 1)"></use><use xlink:href="#SvgjsG3236" transform="translate(313.59999999999997, 89.6) scale(1.4)" fill="rgba(116, 20, 159, 1)"></use><use xlink:href="#SvgjsG3237" transform="translate(313.59999999999997, 134.39999999999998) scale(1.4)" fill="rgba(116, 20, 159, 1)"></use><use xlink:href="#SvgjsG3238" transform="translate(313.59999999999997, 179.2) scale(1.4)" fill="rgba(116, 20, 159, 1)"></use><use xlink:href="#SvgjsG3236" transform="translate(313.59999999999997, 224) scale(1.4)" fill="rgba(116, 20, 159, 1)"></use><use xlink:href="#SvgjsG3237" transform="translate(313.59999999999997, 268.79999999999995) scale(1.4)" fill="rgba(116, 20, 159, 1)"></use><use xlink:href="#SvgjsG3238" transform="translate(313.59999999999997, 313.59999999999997) scale(1.4)" fill="rgba(116, 20, 159, 1)"></use><use xlink:href="#SvgjsG3236" transform="translate(313.59999999999997, 358.4) scale(1.4)" fill="rgba(116, 20, 159, 1)"></use><use xlink:href="#SvgjsG3237" transform="translate(313.59999999999997, 403.2) scale(1.4)" fill="rgba(116, 20, 159, 1)"></use><use xlink:href="#SvgjsG3238" transform="translate(358.4, 0) scale(1.4)" fill="rgba(116, 20, 159, 1)"></use><use xlink:href="#SvgjsG3236" transform="translate(358.4, 44.8) scale(1.4)" fill="rgba(116, 20, 159, 1)"></use><use xlink:href="#SvgjsG3237" transform="translate(358.4, 89.6) scale(1.4)" fill="rgba(116, 20, 159, 1)"></use><use xlink:href="#SvgjsG3238" transform="translate(358.4, 134.39999999999998) scale(1.4)" fill="rgba(116, 20, 159, 1)"></use><use xlink:href="#SvgjsG3236" transform="translate(358.4, 179.2) scale(1.4)" fill="rgba(116, 20, 159, 1)"></use><use xlink:href="#SvgjsG3237" transform="translate(358.4, 224) scale(1.4)" fill="rgba(116, 20, 159, 1)"></use><use xlink:href="#SvgjsG3238" transform="translate(358.4, 268.79999999999995) scale(1.4)" fill="rgba(116, 20, 159, 1)"></use><use xlink:href="#SvgjsG3236" transform="translate(358.4, 313.59999999999997) scale(1.4)" fill="rgba(116, 20, 159, 1)"></use><use xlink:href="#SvgjsG3237" transform="translate(358.4, 358.4) scale(1.4)" fill="rgba(116, 20, 159, 1)"></use><use xlink:href="#SvgjsG3238" transform="translate(358.4, 403.2) scale(1.4)" fill="rgba(116, 20, 159, 1)"></use><use xlink:href="#SvgjsG3236" transform="translate(403.2, 0) scale(1.4)" fill="rgba(116, 20, 159, 1)"></use><use xlink:href="#SvgjsG3237" transform="translate(403.2, 44.8) scale(1.4)" fill="rgba(116, 20, 159, 1)"></use><use xlink:href="#SvgjsG3238" transform="translate(403.2, 89.6) scale(1.4)" fill="rgba(116, 20, 159, 1)"></use><use xlink:href="#SvgjsG3236" transform="translate(403.2, 134.39999999999998) scale(1.4)" fill="rgba(116, 20, 159, 1)"></use><use xlink:href="#SvgjsG3237" transform="translate(403.2, 179.2) scale(1.4)" fill="rgba(116, 20, 159, 1)"></use><use xlink:href="#SvgjsG3238" transform="translate(403.2, 224) scale(1.4)" fill="rgba(116, 20, 159, 1)"></use><use xlink:href="#SvgjsG3236" transform="translate(403.2, 268.79999999999995) scale(1.4)" fill="rgba(116, 20, 159, 1)"></use><use xlink:href="#SvgjsG3237" transform="translate(403.2, 313.59999999999997) scale(1.4)" fill="rgba(116, 20, 159, 1)"></use><use xlink:href="#SvgjsG3238" transform="translate(403.2, 358.4) scale(1.4)" fill="rgba(116, 20, 159, 1)"></use><use xlink:href="#SvgjsG3236" transform="translate(403.2, 403.2) scale(1.4)" fill="rgba(116, 20, 159, 1)"></use></g></defs></svg>